<mxfile host="65bd71144e">
    <diagram id="1CmAkMg293N3uRQi1WPS" name="Page-1">
        <mxGraphModel dx="1997" dy="1812" grid="1" gridSize="10" guides="1" tooltips="1" connect="1" arrows="1" fold="1" page="1" pageScale="1" pageWidth="850" pageHeight="1100" math="0" shadow="0">
            <root>
                <mxCell id="0"/>
                <mxCell id="1" parent="0"/>
                <mxCell id="2" value="" style="rounded=0;whiteSpace=wrap;html=1;fillColor=#CCFFFF;fontColor=#ffffff;strokeColor=#001DBC;" vertex="1" parent="1">
                    <mxGeometry x="40" y="40" width="800" height="600" as="geometry"/>
                </mxCell>
                <mxCell id="3" value="" style="rounded=0;whiteSpace=wrap;html=1;strokeColor=#006EAF;fillColor=#1ba1e2;fontColor=#ffffff;" vertex="1" parent="1">
                    <mxGeometry x="40" y="40" width="800" height="80" as="geometry"/>
                </mxCell>
                <mxCell id="4" value="&lt;font color=&quot;#33001a&quot;&gt;LOGO&lt;/font&gt;" style="rounded=1;whiteSpace=wrap;html=1;strokeColor=#FFFFCC;fillColor=#00CCCC;" vertex="1" parent="1">
                    <mxGeometry x="60" y="70" width="70" height="20" as="geometry"/>
                </mxCell>
                <mxCell id="5" value="&lt;font color=&quot;#ffffff&quot;&gt;HOME&lt;/font&gt;" style="rounded=1;whiteSpace=wrap;html=1;strokeColor=#B20000;fillColor=#e51400;fontStyle=1;fontColor=#ffffff;" vertex="1" parent="1">
                    <mxGeometry x="350" y="70" width="70" height="20" as="geometry"/>
                </mxCell>
                <mxCell id="6" value="&lt;font color=&quot;#33001a&quot;&gt;PLAYLIST&lt;/font&gt;" style="rounded=1;whiteSpace=wrap;html=1;strokeColor=#FFFFCC;fillColor=#00CCCC;fontStyle=1" vertex="1" parent="1">
                    <mxGeometry x="450" y="70" width="70" height="20" as="geometry"/>
                </mxCell>
                <mxCell id="7" value="" style="rounded=0;whiteSpace=wrap;html=1;strokeColor=#FFFFCC;fontColor=#33001A;fillColor=#00CCCC;" vertex="1" parent="1">
                    <mxGeometry x="40" y="120" width="800" height="520" as="geometry"/>
                </mxCell>
                <mxCell id="8" value="" style="rounded=0;whiteSpace=wrap;html=1;strokeColor=#FFFFCC;fontColor=#33001A;fillColor=#00CCCC;" vertex="1" parent="1">
                    <mxGeometry x="30" y="680" width="800" height="520" as="geometry"/>
                </mxCell>
                <mxCell id="13" value="" style="endArrow=classic;html=1;fillStyle=solid;fontColor=#33001A;fillColor=#3333FF;entryX=0.5;entryY=0;entryDx=0;entryDy=0;" edge="1" parent="1" target="5">
                    <mxGeometry width="50" height="50" relative="1" as="geometry">
                        <mxPoint x="290" y="20" as="sourcePoint"/>
                        <mxPoint x="340" y="-30" as="targetPoint"/>
                    </mxGeometry>
                </mxCell>
                <mxCell id="14" value="" style="endArrow=classic;html=1;fillStyle=solid;fontColor=#33001A;fillColor=#3333FF;entryX=0.5;entryY=0;entryDx=0;entryDy=0;" edge="1" parent="1" target="6">
                    <mxGeometry width="50" height="50" relative="1" as="geometry">
                        <mxPoint x="290" y="20" as="sourcePoint"/>
                        <mxPoint x="340" y="-30" as="targetPoint"/>
                    </mxGeometry>
                </mxCell>
                <mxCell id="15" value="Nav items" style="rounded=1;whiteSpace=wrap;html=1;strokeColor=#FFFFCC;fontColor=#33001A;fillColor=#00CCCC;" vertex="1" parent="1">
                    <mxGeometry x="210" y="-20" width="90" height="40" as="geometry"/>
                </mxCell>
                <mxCell id="18" value="Player" style="rounded=0;whiteSpace=wrap;html=1;strokeColor=#FFFFCC;fontColor=#33001A;fillColor=#FFFFCC;" vertex="1" parent="1">
                    <mxGeometry x="40" y="580" width="800" height="60" as="geometry"/>
                </mxCell>
                <mxCell id="25" value="" style="rounded=1;whiteSpace=wrap;html=1;strokeWidth=2;fillWeight=4;hachureGap=8;hachureAngle=45;fillColor=#1ba1e2;sketch=1;strokeColor=#FFFFCC;fontSize=21;fontColor=#99FFCC;" vertex="1" parent="1">
                    <mxGeometry x="310" y="130" width="510" height="430" as="geometry"/>
                </mxCell>
                <mxCell id="26" value="&lt;font color=&quot;#ff0080&quot; size=&quot;1&quot;&gt;&lt;b style=&quot;font-size: 21px;&quot;&gt;Top Tracks of the week&lt;/b&gt;&lt;/font&gt;" style="text;html=1;strokeColor=none;fillColor=none;align=center;verticalAlign=middle;whiteSpace=wrap;rounded=0;fontColor=#33001A;strokeWidth=6;" vertex="1" parent="1">
                    <mxGeometry x="330" y="150" width="260" height="30" as="geometry"/>
                </mxCell>
                <mxCell id="34" value="" style="group" vertex="1" connectable="0" parent="1">
                    <mxGeometry x="340" y="190" width="450" height="100" as="geometry"/>
                </mxCell>
                <mxCell id="27" value="" style="rounded=0;whiteSpace=wrap;html=1;strokeColor=#FFFFCC;strokeWidth=6;fontSize=21;fontColor=#99FFCC;fillColor=#FFFFCC;" vertex="1" parent="34">
                    <mxGeometry width="450" height="100" as="geometry"/>
                </mxCell>
                <mxCell id="33" value="" style="group" vertex="1" connectable="0" parent="34">
                    <mxGeometry x="10" y="7.142857142857144" width="430" height="85.71428571428574" as="geometry"/>
                </mxCell>
                <mxCell id="28" value="" style="rounded=1;whiteSpace=wrap;html=1;strokeColor=#FFFFCC;strokeWidth=6;fontSize=21;fontColor=#99FFCC;fillColor=#99FFFF;" vertex="1" parent="33">
                    <mxGeometry width="100" height="85.71428571428574" as="geometry"/>
                </mxCell>
                <mxCell id="29" value="" style="rounded=1;whiteSpace=wrap;html=1;strokeColor=#FFFFCC;strokeWidth=6;fontSize=21;fontColor=#99FFCC;fillColor=#99FFFF;" vertex="1" parent="33">
                    <mxGeometry x="110" width="100" height="85.71428571428574" as="geometry"/>
                </mxCell>
                <mxCell id="30" value="" style="rounded=1;whiteSpace=wrap;html=1;strokeColor=#FFFFCC;strokeWidth=6;fontSize=21;fontColor=#99FFCC;fillColor=#99FFFF;" vertex="1" parent="33">
                    <mxGeometry x="220" width="100" height="85.71428571428574" as="geometry"/>
                </mxCell>
                <mxCell id="31" value="" style="rounded=1;whiteSpace=wrap;html=1;strokeColor=#FFFFCC;strokeWidth=6;fontSize=21;fontColor=#99FFCC;fillColor=#99FFFF;" vertex="1" parent="33">
                    <mxGeometry x="330" width="100" height="85.71428571428574" as="geometry"/>
                </mxCell>
                <mxCell id="35" value="" style="group" vertex="1" connectable="0" parent="1">
                    <mxGeometry x="340" y="315" width="450" height="95" as="geometry"/>
                </mxCell>
                <mxCell id="36" value="" style="rounded=0;whiteSpace=wrap;html=1;strokeColor=#FFFFCC;strokeWidth=6;fontSize=21;fontColor=#99FFCC;fillColor=#FFFFCC;" vertex="1" parent="35">
                    <mxGeometry width="450" height="95" as="geometry"/>
                </mxCell>
                <mxCell id="37" value="" style="group" vertex="1" connectable="0" parent="35">
                    <mxGeometry x="10" y="6.785714285714286" width="430" height="81.42857142857143" as="geometry"/>
                </mxCell>
                <mxCell id="38" value="" style="rounded=1;whiteSpace=wrap;html=1;strokeColor=#FFFFCC;strokeWidth=6;fontSize=21;fontColor=#99FFCC;fillColor=#99FFFF;" vertex="1" parent="37">
                    <mxGeometry width="100" height="81.42857142857143" as="geometry"/>
                </mxCell>
                <mxCell id="39" value="" style="rounded=1;whiteSpace=wrap;html=1;strokeColor=#FFFFCC;strokeWidth=6;fontSize=21;fontColor=#99FFCC;fillColor=#99FFFF;" vertex="1" parent="37">
                    <mxGeometry x="110" width="100" height="81.42857142857143" as="geometry"/>
                </mxCell>
                <mxCell id="40" value="" style="rounded=1;whiteSpace=wrap;html=1;strokeColor=#FFFFCC;strokeWidth=6;fontSize=21;fontColor=#99FFCC;fillColor=#99FFFF;" vertex="1" parent="37">
                    <mxGeometry x="220" width="100" height="81.42857142857143" as="geometry"/>
                </mxCell>
                <mxCell id="41" value="" style="rounded=1;whiteSpace=wrap;html=1;strokeColor=#FFFFCC;strokeWidth=6;fontSize=21;fontColor=#99FFCC;fillColor=#99FFFF;" vertex="1" parent="37">
                    <mxGeometry x="330" width="100" height="81.42857142857143" as="geometry"/>
                </mxCell>
                <mxCell id="44" value="motivation&amp;nbsp;" style="rounded=0;whiteSpace=wrap;html=1;strokeColor=#FFFFCC;strokeWidth=6;fontSize=21;fontColor=#99004D;fillColor=#99FFFF;" vertex="1" parent="1">
                    <mxGeometry x="560" y="60" width="260" height="40" as="geometry"/>
                </mxCell>
                <mxCell id="45" value="" style="endArrow=none;html=1;fillStyle=solid;fontSize=21;fontColor=#99004D;fillColor=#3333FF;" edge="1" parent="1">
                    <mxGeometry width="50" height="50" relative="1" as="geometry">
                        <mxPoint x="350" y="310" as="sourcePoint"/>
                        <mxPoint x="400" y="260" as="targetPoint"/>
                    </mxGeometry>
                </mxCell>
                <mxCell id="47" value="" style="endArrow=none;html=1;fillStyle=solid;fontSize=21;fontColor=#99004D;fillColor=#3333FF;strokeColor=#FF0080;exitX=0.077;exitY=0.75;exitDx=0;exitDy=0;exitPerimeter=0;" edge="1" parent="1" source="44">
                    <mxGeometry width="50" height="50" relative="1" as="geometry">
                        <mxPoint x="760" y="140" as="sourcePoint"/>
                        <mxPoint x="810" y="90" as="targetPoint"/>
                    </mxGeometry>
                </mxCell>
                <mxCell id="48" value="" style="ellipse;whiteSpace=wrap;html=1;aspect=fixed;strokeColor=#6F0000;strokeWidth=6;fontSize=21;fontColor=#ffffff;fillColor=#a20025;" vertex="1" parent="1">
                    <mxGeometry x="50" y="585" width="50" height="50" as="geometry"/>
                </mxCell>
                <mxCell id="49" value="" style="rounded=0;whiteSpace=wrap;html=1;strokeColor=none;strokeWidth=6;fontSize=21;fontColor=#000000;fillColor=#3333FF;" vertex="1" parent="1">
                    <mxGeometry x="100" y="620" width="720" height="10" as="geometry"/>
                </mxCell>
                <mxCell id="50" value="" style="triangle;whiteSpace=wrap;html=1;strokeColor=#FFFFCC;strokeWidth=6;fontSize=21;fontColor=#99004D;fillColor=#3333FF;" vertex="1" parent="1">
                    <mxGeometry x="70" y="595" width="20" height="30" as="geometry"/>
                </mxCell>
                <mxCell id="52" value="" style="rounded=0;whiteSpace=wrap;html=1;strokeColor=#FFFFCC;strokeWidth=6;fontSize=21;fontColor=#99004D;fillColor=#3333FF;" vertex="1" parent="1">
                    <mxGeometry x="55" y="770" width="355" height="350" as="geometry"/>
                </mxCell>
                <mxCell id="53" value="&lt;font color=&quot;#ccffff&quot;&gt;YOUR PLAYLISTs&lt;/font&gt;" style="text;html=1;strokeColor=none;fillColor=none;align=center;verticalAlign=middle;whiteSpace=wrap;rounded=0;strokeWidth=6;fontSize=21;fontColor=#99004D;" vertex="1" parent="1">
                    <mxGeometry x="80" y="780" width="297.5" height="30" as="geometry"/>
                </mxCell>
                <mxCell id="54" value="" style="rounded=0;whiteSpace=wrap;html=1;strokeColor=#FFFFCC;strokeWidth=6;fontSize=21;fontColor=#99FFCC;fillColor=#FFFFCC;" vertex="1" parent="1">
                    <mxGeometry x="70" y="820" width="315" height="90" as="geometry"/>
                </mxCell>
                <mxCell id="62" value="" style="rounded=0;whiteSpace=wrap;html=1;strokeColor=#FFFFCC;strokeWidth=6;fontSize=21;fontColor=#CCFFFF;fillColor=#3333FF;" vertex="1" parent="1">
                    <mxGeometry x="440" y="770" width="370" height="160" as="geometry"/>
                </mxCell>
                <mxCell id="63" value="&lt;h1&gt;&lt;font style=&quot;font-size: 30px;&quot;&gt;Songs in playlist&lt;/font&gt;&lt;/h1&gt;" style="text;html=1;strokeColor=none;fillColor=none;spacing=5;spacingTop=-20;whiteSpace=wrap;overflow=hidden;rounded=0;strokeWidth=6;fontSize=21;fontColor=#CCFFFF;align=center;" vertex="1" parent="1">
                    <mxGeometry x="440" y="750" width="360" height="80" as="geometry"/>
                </mxCell>
                <mxCell id="64" value="List" style="swimlane;fontStyle=0;childLayout=stackLayout;horizontal=1;startSize=30;horizontalStack=0;resizeParent=1;resizeParentMax=0;resizeLast=0;collapsible=1;marginBottom=0;whiteSpace=wrap;html=1;strokeColor=#FFFFCC;strokeWidth=6;fontSize=21;fontColor=#CCFFFF;fillColor=#3333FF;" vertex="1" parent="1">
                    <mxGeometry x="460" y="830" width="330" height="90" as="geometry"/>
                </mxCell>
                <mxCell id="66" value="Item 2" style="text;strokeColor=none;fillColor=none;align=left;verticalAlign=middle;spacingLeft=4;spacingRight=4;overflow=hidden;points=[[0,0.5],[1,0.5]];portConstraint=eastwest;rotatable=0;whiteSpace=wrap;html=1;strokeWidth=6;fontSize=21;fontColor=#CCFFFF;" vertex="1" parent="64">
                    <mxGeometry y="30" width="330" height="30" as="geometry"/>
                </mxCell>
                <mxCell id="67" value="Item 3" style="text;strokeColor=none;fillColor=none;align=left;verticalAlign=middle;spacingLeft=4;spacingRight=4;overflow=hidden;points=[[0,0.5],[1,0.5]];portConstraint=eastwest;rotatable=0;whiteSpace=wrap;html=1;strokeWidth=6;fontSize=21;fontColor=#CCFFFF;" vertex="1" parent="64">
                    <mxGeometry y="60" width="330" height="30" as="geometry"/>
                </mxCell>
                <mxCell id="68" value="" style="shape=flexArrow;endArrow=classic;html=1;fillStyle=solid;strokeColor=#FF0080;fontSize=21;fontColor=#CCFFFF;fillColor=#FFFF99;entryX=0;entryY=0.5;entryDx=0;entryDy=0;exitX=1;exitY=0.5;exitDx=0;exitDy=0;" edge="1" parent="1" source="54" target="66">
                    <mxGeometry width="50" height="50" relative="1" as="geometry">
                        <mxPoint x="390" y="870" as="sourcePoint"/>
                        <mxPoint x="440" y="820" as="targetPoint"/>
                    </mxGeometry>
                </mxCell>
                <mxCell id="70" value="" style="group" vertex="1" connectable="0" parent="1">
                    <mxGeometry x="50" y="130" width="250" height="450" as="geometry"/>
                </mxCell>
                <mxCell id="17" value="" style="rounded=1;whiteSpace=wrap;html=1;strokeWidth=2;fillWeight=4;hachureGap=8;hachureAngle=45;fillColor=#1ba1e2;sketch=1;strokeColor=#FFFFCC;fontColor=#33001A;" vertex="1" parent="70">
                    <mxGeometry width="250" height="450" as="geometry"/>
                </mxCell>
                <mxCell id="19" value="&lt;font color=&quot;#99ffcc&quot; size=&quot;1&quot;&gt;&lt;b style=&quot;font-size: 21px;&quot;&gt;Songs queue&lt;/b&gt;&lt;/font&gt;" style="text;html=1;strokeColor=none;fillColor=none;align=center;verticalAlign=middle;whiteSpace=wrap;rounded=0;fontColor=#33001A;strokeWidth=6;" vertex="1" parent="70">
                    <mxGeometry x="45" y="20" width="160" height="30" as="geometry"/>
                </mxCell>
                <mxCell id="20" value="" style="rounded=0;whiteSpace=wrap;html=1;strokeColor=#FFFFCC;strokeWidth=6;fontSize=21;fontColor=#99FFCC;fillColor=#FFFFCC;" vertex="1" parent="70">
                    <mxGeometry x="15" y="60" width="215" height="50" as="geometry"/>
                </mxCell>
                <mxCell id="21" value="" style="rounded=0;whiteSpace=wrap;html=1;strokeColor=#FFFFCC;strokeWidth=6;fontSize=21;fontColor=#99FFCC;fillColor=#FFFFCC;" vertex="1" parent="70">
                    <mxGeometry x="15" y="130" width="215" height="50" as="geometry"/>
                </mxCell>
                <mxCell id="22" value="" style="rounded=0;whiteSpace=wrap;html=1;strokeColor=#FFFFCC;strokeWidth=6;fontSize=21;fontColor=#99FFCC;fillColor=#FFFFCC;" vertex="1" parent="70">
                    <mxGeometry x="15" y="270" width="215" height="50" as="geometry"/>
                </mxCell>
                <mxCell id="23" value="" style="rounded=0;whiteSpace=wrap;html=1;strokeColor=#FFFFCC;strokeWidth=6;fontSize=21;fontColor=#99FFCC;fillColor=#FFFFCC;" vertex="1" parent="70">
                    <mxGeometry x="15" y="200" width="215" height="50" as="geometry"/>
                </mxCell>
                <mxCell id="24" value="" style="rounded=0;whiteSpace=wrap;html=1;strokeColor=#FFFFCC;strokeWidth=6;fontSize=21;fontColor=#99FFCC;fillColor=#FFFFCC;" vertex="1" parent="70">
                    <mxGeometry x="15" y="340" width="215" height="50" as="geometry"/>
                </mxCell>
                <mxCell id="72" value="Player" style="rounded=0;whiteSpace=wrap;html=1;strokeColor=#FFFFCC;fontColor=#33001A;fillColor=#FFFFCC;" vertex="1" parent="1">
                    <mxGeometry x="30" y="1140" width="800" height="60" as="geometry"/>
                </mxCell>
                <mxCell id="73" value="" style="ellipse;whiteSpace=wrap;html=1;aspect=fixed;strokeColor=#6F0000;strokeWidth=6;fontSize=21;fontColor=#ffffff;fillColor=#a20025;" vertex="1" parent="1">
                    <mxGeometry x="40" y="1145" width="50" height="50" as="geometry"/>
                </mxCell>
                <mxCell id="74" value="" style="rounded=0;whiteSpace=wrap;html=1;strokeColor=none;strokeWidth=6;fontSize=21;fontColor=#000000;fillColor=#3333FF;" vertex="1" parent="1">
                    <mxGeometry x="90" y="1180" width="720" height="10" as="geometry"/>
                </mxCell>
                <mxCell id="75" value="" style="triangle;whiteSpace=wrap;html=1;strokeColor=#FFFFCC;strokeWidth=6;fontSize=21;fontColor=#99004D;fillColor=#3333FF;" vertex="1" parent="1">
                    <mxGeometry x="60" y="1155" width="20" height="30" as="geometry"/>
                </mxCell>
                <mxCell id="76" value="" style="group" vertex="1" connectable="0" parent="1">
                    <mxGeometry x="420" y="945" width="380" height="165" as="geometry"/>
                </mxCell>
                <mxCell id="77" value="" style="rounded=1;whiteSpace=wrap;html=1;strokeWidth=2;fillWeight=4;hachureGap=8;hachureAngle=45;fillColor=#1ba1e2;sketch=1;strokeColor=#FFFFCC;fontColor=#33001A;" vertex="1" parent="76">
                    <mxGeometry width="380" height="165" as="geometry"/>
                </mxCell>
                <mxCell id="78" value="&lt;font color=&quot;#ffffcc&quot; size=&quot;1&quot;&gt;&lt;b style=&quot;font-size: 21px;&quot;&gt;Songs queue&lt;/b&gt;&lt;/font&gt;" style="text;html=1;strokeColor=none;fillColor=none;align=center;verticalAlign=middle;whiteSpace=wrap;rounded=0;fontColor=#33001A;strokeWidth=6;" vertex="1" parent="76">
                    <mxGeometry x="68.4" y="7.333333333333333" width="243.2" height="11" as="geometry"/>
                </mxCell>
                <mxCell id="79" value="" style="rounded=0;whiteSpace=wrap;html=1;strokeColor=#FFFFCC;strokeWidth=6;fontSize=21;fontColor=#99FFCC;fillColor=#FFFFCC;" vertex="1" parent="76">
                    <mxGeometry x="22.8" y="65" width="326.8" height="18.333333333333332" as="geometry"/>
                </mxCell>
                <mxCell id="80" value="" style="rounded=0;whiteSpace=wrap;html=1;strokeColor=#FFFFCC;strokeWidth=6;fontSize=21;fontColor=#99FFCC;fillColor=#FFFFCC;" vertex="1" parent="76">
                    <mxGeometry x="22.8" y="94.99666666666667" width="326.8" height="18.333333333333332" as="geometry"/>
                </mxCell>
                <mxCell id="82" value="" style="rounded=0;whiteSpace=wrap;html=1;strokeColor=#FFFFCC;strokeWidth=6;fontSize=21;fontColor=#99FFCC;fillColor=#FFFFCC;" vertex="1" parent="76">
                    <mxGeometry x="22.8" y="125.00333333333333" width="326.8" height="18.333333333333332" as="geometry"/>
                </mxCell>
                <mxCell id="85" value="" style="rounded=0;whiteSpace=wrap;html=1;strokeColor=#FFFFCC;strokeWidth=6;fontSize=21;fontColor=#99FFCC;fillColor=#FFFFCC;" vertex="1" parent="76">
                    <mxGeometry x="22.80000000000001" y="35" width="326.8" height="18.333333333333332" as="geometry"/>
                </mxCell>
                <mxCell id="87" value="" style="rounded=0;whiteSpace=wrap;html=1;strokeColor=#006EAF;fillColor=#1ba1e2;fontColor=#ffffff;" vertex="1" parent="1">
                    <mxGeometry x="30" y="680" width="800" height="80" as="geometry"/>
                </mxCell>
                <mxCell id="88" value="&lt;font color=&quot;#33001a&quot;&gt;LOGO&lt;/font&gt;" style="rounded=1;whiteSpace=wrap;html=1;strokeColor=#FFFFCC;fillColor=#00CCCC;" vertex="1" parent="1">
                    <mxGeometry x="50" y="710" width="70" height="20" as="geometry"/>
                </mxCell>
                <mxCell id="89" value="&lt;font color=&quot;#33001a&quot;&gt;HOME&lt;/font&gt;" style="rounded=1;whiteSpace=wrap;html=1;strokeColor=#FFFFCC;fillColor=#00CCCC;fontStyle=1" vertex="1" parent="1">
                    <mxGeometry x="340" y="710" width="70" height="20" as="geometry"/>
                </mxCell>
                <mxCell id="90" value="PLAYLIST" style="rounded=1;whiteSpace=wrap;html=1;strokeColor=#B20000;fillColor=#e51400;fontStyle=1;fontColor=#ffffff;" vertex="1" parent="1">
                    <mxGeometry x="440" y="710" width="70" height="20" as="geometry"/>
                </mxCell>
                <mxCell id="91" value="Search bar" style="rounded=0;whiteSpace=wrap;html=1;strokeColor=#FFFFCC;strokeWidth=6;fontSize=21;fontColor=#99004D;fillColor=#99FFFF;" vertex="1" parent="1">
                    <mxGeometry x="550" y="700" width="260" height="40" as="geometry"/>
                </mxCell>
                <mxCell id="94" value="" style="shape=flexArrow;endArrow=classic;startArrow=classic;html=1;fillStyle=solid;strokeColor=#FF0080;fontSize=30;fontColor=#FFFFCC;fillColor=#FFFF99;entryX=0.5;entryY=1;entryDx=0;entryDy=0;endWidth=10.666666666666666;endSize=5.642666666666667;width=4;startWidth=10.666666666666666;startSize=6.84;exitX=0.729;exitY=0.001;exitDx=0;exitDy=0;exitPerimeter=0;" edge="1" parent="1" source="25" target="44">
                    <mxGeometry width="100" height="100" relative="1" as="geometry">
                        <mxPoint x="670" y="210" as="sourcePoint"/>
                        <mxPoint x="770" y="110" as="targetPoint"/>
                        <Array as="points">
                            <mxPoint x="650" y="120"/>
                        </Array>
                    </mxGeometry>
                </mxCell>
                <mxCell id="96" value="" style="whiteSpace=wrap;html=1;aspect=fixed;strokeColor=#FFFFCC;strokeWidth=6;fontSize=30;fontColor=#FFFFCC;fillColor=#3333FF;" vertex="1" parent="1">
                    <mxGeometry x="860" y="40" width="320" height="320" as="geometry"/>
                </mxCell>
                <mxCell id="97" value="" style="group" vertex="1" connectable="0" parent="1">
                    <mxGeometry x="340" y="430" width="450" height="110" as="geometry"/>
                </mxCell>
                <mxCell id="98" value="" style="rounded=0;whiteSpace=wrap;html=1;strokeColor=#FFFFCC;strokeWidth=6;fontSize=21;fontColor=#99FFCC;fillColor=#FFFFCC;" vertex="1" parent="97">
                    <mxGeometry width="450" height="110.00000000000001" as="geometry"/>
                </mxCell>
                <mxCell id="99" value="" style="group" vertex="1" connectable="0" parent="97">
                    <mxGeometry x="10" y="7.857142857142858" width="430" height="94.2857142857143" as="geometry"/>
                </mxCell>
                <mxCell id="100" value="" style="rounded=1;whiteSpace=wrap;html=1;strokeColor=#FFFFCC;strokeWidth=6;fontSize=21;fontColor=#99FFCC;fillColor=#99FFFF;" vertex="1" parent="99">
                    <mxGeometry width="100" height="94.2857142857143" as="geometry"/>
                </mxCell>
                <mxCell id="101" value="" style="rounded=1;whiteSpace=wrap;html=1;strokeColor=#FFFFCC;strokeWidth=6;fontSize=21;fontColor=#99FFCC;fillColor=#99FFFF;" vertex="1" parent="99">
                    <mxGeometry x="110" width="100" height="94.2857142857143" as="geometry"/>
                </mxCell>
                <mxCell id="102" value="" style="rounded=1;whiteSpace=wrap;html=1;strokeColor=#FFFFCC;strokeWidth=6;fontSize=21;fontColor=#99FFCC;fillColor=#99FFFF;" vertex="1" parent="99">
                    <mxGeometry x="220" width="100" height="94.2857142857143" as="geometry"/>
                </mxCell>
                <mxCell id="103" value="" style="rounded=1;whiteSpace=wrap;html=1;strokeColor=#FFFFCC;strokeWidth=6;fontSize=21;fontColor=#99FFCC;fillColor=#99FFFF;" vertex="1" parent="99">
                    <mxGeometry x="330" width="100" height="94.2857142857143" as="geometry"/>
                </mxCell>
            </root>
        </mxGraphModel>
    </diagram>
</mxfile>